<?xml version="1.0" encoding="UTF-8"?>
<svg xmlns="http://www.w3.org/2000/svg" version="1.1" viewBox="0 0 512 512">
  <defs>
    <style>
      .cls-1 {
        fill: #c41f3e;
      }

      .cls-2 {
        fill: #8b1d41;
      }
    </style>
  </defs>
  <!-- Generator: Adobe Illustrator 28.6.0, SVG Export Plug-In . SVG Version: 1.2.0 Build 709)  -->
  <g>
    <g id="Layer_1">
      <g>
        <path class="cls-1" d="M76.69,287c-5.15,4-11.54,6.08-18.06,5.85-18.59,0-30.93-14.22-30.93-36.84s12.22-37.02,30.93-37.02c6.1-.19,12.1,1.6,17.09,5.1l13.89-18.83c-8.64-5.77-17.1-9.33-33.52-9.33-35.72,0-56.08,24.1-56.08,60.08s21.3,59.9,56.08,59.9c22.2,0,30.81-7.6,34.76-10.3l-14.15-18.61ZM328.53,286.81c-5.21,4.09-11.7,6.25-18.33,6.1-18.59,0-30.93-14.22-30.93-36.84s12.32-37.02,30.93-37.02c6.1-.18,12.09,1.6,17.08,5.1l13.89-18.83c-8.64-5.77-17.11-9.33-33.52-9.33-35.66,0-56.09,24.1-56.09,60.08s21.3,59.9,56.09,59.9c22.2,0,30.81-7.6,34.76-10.3l-13.89-18.86ZM196.05,198.05c25.6,0,39.12,10.26,39.12,29.67,0,14.04-9.14,21.25-17.94,24.83l-.06.24c10.3,2.93,22.4,9.61,22.4,28,0,21.33-15.78,33.08-44.42,33.08h-40.73v-115.81h41.62ZM192.58,263.57h-11.24v29.99h11.57c11.67,0,19.43-4.57,19.43-14.65,0-10.67-7.7-15.34-19.76-15.34ZM192.58,217.31h-11.24v26.88h10.55c10.19,0,17.54-4.07,17.54-13.31,0-6.2-3.79-13.57-16.84-13.57ZM102.78,313.86h26.82v-115.81h-26.82v115.81Z"/>
        <path class="cls-2" d="M435.45,210.64h0c-5.48-7.39-9.8-13.25-11.1-14.98-2.39-3.38-6.34-5.33-10.48-5.16-4.1-.17-8,1.72-10.41,5.02l-44.58,60.48,44.58,60.47c2.41,3.3,6.32,5.18,10.41,5,4.14.17,8.09-1.76,10.48-5.14l11.1-15-33.42-45.33,33.42-45.37Z"/>
        <path class="cls-1" d="M467.42,195.53c-2.4-3.3-6.3-5.19-10.39-5.02h-43.17c4.15-.17,8.1,1.77,10.49,5.16,4.36,5.79,44.5,60.34,44.5,60.34,0,0-40.14,54.53-44.5,60.34-2.4,3.38-6.34,5.31-10.49,5.14h43.17c4.08.17,7.98-1.7,10.39-5l44.58-60.49-44.58-60.48Z"/>
      </g>
    </g>
  </g>
</svg>