<svg id="Group_128" data-name="Group 128" xmlns="http://www.w3.org/2000/svg" width="143.226" height="40" viewBox="0 0 143.226 40">
  <path id="Path_1" data-name="Path 1" d="M115.94,8.525v25.9h12.313v4.36H110.925V13.68Z" transform="translate(-54.786 -4.211)" fill="#232323"/>
  <path id="Path_2" data-name="Path 2" d="M158.667,46.759c-6.425,0-10.775-4.745-10.775-11.71s4.561-11.584,10.775-11.584c7.338,0,10.321,5.811,10.362,12.094a8.767,8.767,0,0,1-.04.941h-16.5c.373,3.888,2.777,6.283,6.174,6.283,2.444,0,4.516-.982,5.262-3.165H168.7c-1.245,4.486-4.934,7.136-10.03,7.136ZM164.3,33c-.292-3.165-2.071-5.686-5.635-5.686s-5.679,2.266-6.133,5.686Z" transform="translate(-73.044 -11.589)" fill="#232323"/>
  <path id="Path_3" data-name="Path 3" d="M211.712,20.406h.04V8.011h4.889V38.528h-4.974v-3.8h-.041a7.234,7.234,0,0,1-6.8,4.361c-5.846,0-9.948-4.657-9.948-11.668s4.062-11.539,9.948-11.539a7.285,7.285,0,0,1,6.879,4.532Zm-5.886,14.7c4.228,0,6.215-3.674,6.215-7.692s-2.071-7.563-6.215-7.563-6.174,3.29-6.174,7.563S201.763,35.109,205.825,35.109Z" transform="translate(-96.252 -3.957)" fill="#232323"/>
  <path id="Path_4" data-name="Path 4" d="M250.464,24.063v3.888c1.118-2.521,3.109-4.486,6.425-4.486,5.554,0,7.706,3.8,7.706,8.888v13.8h-4.767V33.377c0-3.419-1.119-5.639-4.1-5.639s-5.181,2.65-5.181,8.165V46.161h-4.808v-22.1Z" transform="translate(-121.37 -11.589)" fill="#232323"/>
  <path id="Path_5" data-name="Path 5" d="M29.185,31.068,21.078,39.51H0V8.916L8.565,0V31.068Z" fill="#232323"/>
  <path id="Path_6" data-name="Path 6" d="M19.015,9.418,27.122.968H48.2v30.59l-8.566,8.92V9.418Z" transform="translate(-9.392 -0.478)" fill="#232323"/>
</svg>
