<svg version="1.1" id="Layer_1" xmlns="http://www.w3.org/2000/svg" xmlns:xlink="http://www.w3.org/1999/xlink" x="0px" y="0px"
	 width="100%" viewBox="0 0 1258 681" enable-background="new 0 0 1258 681" xml:space="preserve">
<path fill="#FFFFFF" opacity="1.000000" stroke="none" 
	d="
M1259.000000,421.000000 
	C1259.000000,507.946045 1259.000000,594.892090 1259.000000,682.000000 
	C1111.978638,682.000000 964.957153,682.000000 817.467834,681.531982 
	C817.000000,676.731323 817.293152,672.369507 816.867371,668.079163 
	C816.675171,666.142212 815.434814,663.954102 814.005798,662.561646 
	C809.687622,658.354370 805.298523,654.205017 803.979553,648.071716 
	C802.738708,642.301636 801.204651,636.438660 801.132996,630.600159 
	C800.822510,605.274109 801.261230,579.937805 800.858093,554.614319 
	C800.717285,545.769836 799.484070,536.844360 797.777832,528.146545 
	C795.308472,515.558594 789.746643,504.066071 779.917114,495.701080 
	C761.802734,480.285614 739.417847,478.074615 716.971619,478.256622 
	C702.615845,478.373047 688.574646,482.103577 675.393188,488.095459 
	C669.444519,490.799561 663.847229,494.276703 657.770691,497.576782 
	C663.189270,508.341858 668.186157,518.269104 672.976929,527.786804 
	C679.272522,523.896057 684.603821,519.975098 690.454041,517.116211 
	C702.676025,511.143463 715.926270,510.289215 729.241455,511.066833 
	C741.386230,511.776093 751.901245,516.288757 758.406067,527.113464 
	C763.654663,535.847717 765.845581,545.482239 764.629883,556.164368 
	C752.467896,552.922058 740.986694,551.466187 728.857849,552.751587 
	C710.412292,554.706543 693.175720,559.361023 677.959656,570.084351 
	C666.556396,578.120667 657.132324,588.089600 652.298828,601.491577 
	C648.751343,611.328247 647.343506,621.352356 648.804077,632.054077 
	C651.017578,648.272827 658.213257,661.434937 671.205627,670.803528 
	C677.975037,675.684937 686.350159,678.339600 694.000000,682.000000 
	C669.311890,682.000000 644.623779,682.000000 619.467834,681.531372 
	C619.000000,670.804382 619.000000,660.546021 619.000000,650.322388 
	C596.443604,649.881165 585.797241,634.436462 585.883423,614.663635 
	C586.184570,545.535828 586.000000,476.405914 586.000000,407.276825 
	C586.000000,405.339600 586.000000,403.402405 586.000000,401.440613 
	C573.636414,401.440613 561.941833,401.440613 550.000000,401.440613 
	C550.000000,403.870880 550.000000,405.861237 550.000000,407.851593 
	C550.000000,479.812469 549.949951,551.773499 550.090637,623.734070 
	C550.102478,629.786682 550.841370,635.963867 552.197266,641.863770 
	C556.004761,658.431213 565.662476,670.373413 581.838440,676.339111 
	C588.073486,678.638550 594.604065,680.136780 601.000000,682.000000 
	C570.645264,682.000000 540.290466,682.000000 509.467834,681.532043 
	C508.999817,676.566284 509.161346,672.059631 508.914886,667.575378 
	C508.824310,665.928101 508.250702,663.665222 507.078094,662.820312 
	C497.065155,655.605652 494.128326,645.242554 494.050354,633.768066 
	C493.885132,609.449036 494.416260,585.117737 493.817352,560.812317 
	C493.534821,549.346741 492.080719,537.768738 489.756653,526.531372 
	C486.983154,513.120789 480.313232,501.422394 469.051422,493.066620 
	C451.506561,480.048950 430.793427,478.683685 410.103149,478.204895 
	C403.131470,478.043579 396.007721,479.559753 389.133606,481.108582 
	C375.389709,484.205261 362.427277,489.317169 350.583160,498.128723 
	C355.648468,508.238373 360.626312,518.173462 365.548798,527.997986 
	C370.378448,524.747070 374.435852,521.585205 378.875610,519.108948 
	C391.710205,511.950653 405.715851,510.534119 420.146667,510.953033 
	C446.174072,511.708557 458.603455,532.083679 457.448730,555.993469 
	C456.168823,555.776611 454.947876,555.543640 453.718933,555.365845 
	C445.915863,554.237122 438.136353,552.518188 430.298859,552.189148 
	C423.948486,551.922607 417.500854,553.140320 411.143280,554.033691 
	C391.988678,556.725403 375.051849,564.487610 360.944702,577.684814 
	C346.955017,590.772278 340.222229,606.923401 340.836029,626.451660 
	C341.344574,642.631104 347.419037,655.954834 358.655304,666.996094 
	C366.257172,674.466003 375.793091,678.983948 386.000000,682.000000 
	C345.978577,682.000000 305.957123,682.000000 265.698669,681.667480 
	C282.127258,679.675537 297.722198,674.634644 312.200745,666.258057 
	C313.383698,665.573730 314.845398,663.164307 314.467987,662.327454 
	C310.199860,652.864624 305.597717,643.552490 300.910950,633.839050 
	C282.194946,648.053406 262.084656,655.223267 238.847076,651.031555 
	C227.846863,649.047241 218.095474,644.622559 209.721985,637.215637 
	C196.911835,625.884338 191.508377,610.777222 190.249405,594.536194 
	C188.853149,576.524170 189.553421,558.472717 197.914261,541.605652 
	C203.854477,529.621948 212.347305,520.012695 224.370300,514.501343 
	C242.589981,506.149353 261.327667,507.095764 279.732391,514.428711 
	C285.912079,516.890869 291.751099,520.208252 297.802277,523.162292 
	C303.499329,515.181396 309.318420,507.029480 315.914612,497.789032 
	C309.603638,494.517334 303.895569,491.358795 298.019531,488.551727 
	C283.981018,481.845306 269.022949,478.365143 253.574249,478.199066 
	C244.749069,478.104156 235.760483,479.330078 227.091568,481.140076 
	C199.337936,486.934814 177.963089,502.044525 164.505020,527.175476 
	C149.825806,554.586731 148.693115,583.939636 155.474548,613.487244 
	C162.445496,643.860474 180.909882,665.259766 210.271133,676.567322 
	C216.315094,678.894897 222.746933,680.215332 229.000000,682.000000 
	C178.311905,682.000000 127.623802,682.000000 76.692627,681.670410 
	C93.496864,679.015686 108.782753,673.111328 119.519249,658.892212 
	C128.634277,646.820496 130.727890,633.077576 129.155319,618.171936 
	C127.557877,603.030518 120.695717,591.341980 109.072128,582.017456 
	C95.866875,571.424072 80.103470,565.730164 64.929756,558.912048 
	C52.473160,553.314819 41.421936,546.595337 39.512070,531.205200 
	C38.892117,526.209473 41.452015,519.289246 45.808598,516.041748 
	C57.148438,507.588867 69.841980,506.811432 82.525787,511.042297 
	C92.230171,514.279358 101.272125,519.502441 111.028107,524.037109 
	C114.127052,513.975647 117.484344,503.075348 120.950348,491.822113 
	C115.505280,489.865021 110.572685,488.083344 105.634048,486.318542 
	C85.110588,478.984711 64.182068,475.340973 42.677444,481.098602 
	C22.739637,486.436646 6.941919,496.572418 2.862261,518.878235 
	C2.716992,519.672485 1.641783,520.296570 0.999994,521.000000 
	C1.000000,347.724518 1.000000,174.449051 1.000000,1.000000 
	C262.688080,1.000000 524.376221,1.000000 786.341675,1.368309 
	C782.550354,2.251241 778.338623,2.262037 774.438232,3.369370 
	C759.105225,7.722416 743.632263,11.766568 728.676453,17.204571 
	C717.382202,21.311180 706.410400,26.694113 695.976501,32.693935 
	C676.009338,44.175671 659.241150,59.750290 643.876892,76.755585 
	C635.498291,86.029083 628.592773,96.492790 625.102051,108.631569 
	C622.499268,117.682541 620.805725,127.005226 618.929688,136.252029 
	C617.070496,145.415726 617.412109,154.585602 619.903809,163.605728 
	C625.398621,183.496902 639.020691,195.562012 657.958069,201.989120 
	C680.665100,209.695587 704.446594,211.720856 728.110535,212.707764 
	C746.916321,213.492050 765.834167,211.747879 784.696045,210.974625 
	C797.402954,210.453674 810.097717,209.149429 822.800354,209.114365 
	C846.229797,209.049667 869.676392,209.251450 893.086487,210.127060 
	C910.013794,210.760193 926.903564,212.549286 943.791504,214.034210 
	C957.037415,215.198883 970.313232,216.275818 983.469910,218.138779 
	C998.979919,220.334961 1014.526855,222.670822 1029.788208,226.134186 
	C1057.087158,232.329346 1084.369751,238.755264 1111.306274,246.338531 
	C1132.361450,252.266098 1151.879272,262.101624 1168.292236,276.940765 
	C1182.440552,289.732391 1192.996216,305.429413 1201.974609,322.127777 
	C1213.513672,343.588806 1213.803467,366.357300 1208.707031,389.515106 
	C1206.604492,399.068146 1203.526001,408.158539 1197.481079,416.290985 
	C1185.768433,432.048615 1165.798706,433.117065 1151.214233,419.692657 
	C1143.386963,412.488037 1137.672729,403.733643 1132.700806,394.387451 
	C1119.491211,369.556030 1106.369629,344.697418 1096.939209,318.092987 
	C1091.769775,303.509399 1086.495117,288.962219 1081.096191,274.462585 
	C1080.583862,273.086395 1078.976807,271.389099 1077.650024,271.159607 
	C1066.700439,269.265625 1055.694702,267.697083 1044.710327,266.002655 
	C1032.277954,264.084930 1019.856873,262.093536 1007.417114,260.225647 
	C1001.725952,259.371094 996.002014,258.735504 989.452515,257.892426 
	C990.926819,260.343445 992.015503,261.776642 992.718201,263.379028 
	C1001.169373,282.652069 1009.938599,301.797302 1017.874390,321.281525 
	C1027.149170,344.053162 1035.626221,367.148651 1044.554932,390.062469 
	C1054.963745,416.774384 1065.732910,443.348602 1075.886597,470.156464 
	C1084.912964,493.988037 1097.263550,515.538879 1116.365601,532.738281 
	C1119.211304,535.300476 1122.615112,537.593567 1126.165283,538.959045 
	C1138.012695,543.515686 1150.136719,545.874817 1163.069580,544.121399 
	C1186.950317,540.883850 1206.374023,529.901306 1220.494629,510.700684 
	C1238.396484,486.358337 1250.861694,459.372864 1256.105103,429.335999 
	C1256.604370,426.476044 1258.013306,423.774872 1259.000000,421.000000 
M858.000000,556.500000 
	C858.000000,597.227173 858.000000,637.954285 858.000000,678.660645 
	C870.393555,678.660645 881.970032,678.660645 894.000000,678.660645 
	C894.000000,676.368469 894.000000,674.401611 894.000000,672.434814 
	C894.000000,635.121887 893.993591,597.808899 894.019470,560.495972 
	C894.020752,558.686279 894.221802,556.865112 894.472168,555.069153 
	C896.161194,542.953430 901.466919,532.441345 909.402344,523.345276 
	C918.575012,512.830994 931.578735,506.005615 946.951172,509.992584 
	C952.382996,511.401398 957.472473,514.130432 962.842957,516.307251 
	C967.618286,505.043762 972.405762,493.751770 977.381958,482.014618 
	C943.799927,474.274261 914.714722,477.556946 894.810974,509.499359 
	C894.486389,509.147583 894.161743,508.795776 893.837158,508.444000 
	C893.837158,499.735107 893.837158,491.026245 893.837158,482.329224 
	C881.627136,482.329224 870.050964,482.329224 858.000000,482.329224 
	C858.000000,506.936890 858.000000,531.218445 858.000000,556.500000 
z"/>
<path fill="#F89820" opacity="1.000000" stroke="none" 
	d="
M1259.000000,420.666687 
	C1258.013306,423.774872 1256.604370,426.476044 1256.105103,429.335999 
	C1250.861694,459.372864 1238.396484,486.358337 1220.494629,510.700684 
	C1206.374023,529.901306 1186.950317,540.883850 1163.069580,544.121399 
	C1150.136719,545.874817 1138.012695,543.515686 1126.165283,538.959045 
	C1122.615112,537.593567 1119.211304,535.300476 1116.365601,532.738281 
	C1097.263550,515.538879 1084.912964,493.988037 1075.886597,470.156464 
	C1065.732910,443.348602 1054.963745,416.774384 1044.554932,390.062469 
	C1035.626221,367.148651 1027.149170,344.053162 1017.874390,321.281525 
	C1009.938599,301.797302 1001.169373,282.652069 992.718201,263.379028 
	C992.015503,261.776642 990.926819,260.343445 989.452515,257.892426 
	C996.002014,258.735504 1001.725952,259.371094 1007.417114,260.225647 
	C1019.856873,262.093536 1032.277954,264.084930 1044.710327,266.002655 
	C1055.694702,267.697083 1066.700439,269.265625 1077.650024,271.159607 
	C1078.976807,271.389099 1080.583862,273.086395 1081.096191,274.462585 
	C1086.495117,288.962219 1091.769775,303.509399 1096.939209,318.092987 
	C1106.369629,344.697418 1119.491211,369.556030 1132.700806,394.387451 
	C1137.672729,403.733643 1143.386963,412.488037 1151.214233,419.692657 
	C1165.798706,433.117065 1185.768433,432.048615 1197.481079,416.290985 
	C1203.526001,408.158539 1206.604492,399.068146 1208.707031,389.515106 
	C1213.803467,366.357300 1213.513672,343.588806 1201.974609,322.127777 
	C1192.996216,305.429413 1182.440552,289.732391 1168.292236,276.940765 
	C1151.879272,262.101624 1132.361450,252.266098 1111.306274,246.338531 
	C1084.369751,238.755264 1057.087158,232.329346 1029.788208,226.134186 
	C1014.526855,222.670822 998.979919,220.334961 983.469910,218.138779 
	C970.313232,216.275818 957.037415,215.198883 943.791504,214.034210 
	C926.903564,212.549286 910.013794,210.760193 893.086487,210.127060 
	C869.676392,209.251450 846.229797,209.049667 822.800354,209.114365 
	C810.097717,209.149429 797.402954,210.453674 784.696045,210.974625 
	C765.834167,211.747879 746.916321,213.492050 728.110535,212.707764 
	C704.446594,211.720856 680.665100,209.695587 657.958069,201.989120 
	C639.020691,195.562012 625.398621,183.496902 619.903809,163.605728 
	C617.412109,154.585602 617.070496,145.415726 618.929688,136.252029 
	C620.805725,127.005226 622.499268,117.682541 625.102051,108.631569 
	C628.592773,96.492790 635.498291,86.029083 643.876892,76.755585 
	C659.241150,59.750290 676.009338,44.175671 695.976501,32.693935 
	C706.410400,26.694113 717.382202,21.311180 728.676453,17.204571 
	C743.632263,11.766568 759.105225,7.722416 774.438232,3.369370 
	C778.338623,2.262037 782.550354,2.251241 786.809509,1.368309 
	C800.020874,1.000000 813.041809,1.000000 826.730164,1.373306 
	C830.987427,2.161657 834.628113,2.324023 838.157959,3.036104 
	C852.361511,5.901388 866.627747,8.542374 880.688538,12.006521 
	C899.248779,16.579226 916.112427,25.350109 932.329529,35.186325 
	C949.986084,45.895584 965.836975,58.817898 977.011169,76.574127 
	C984.919983,89.141479 992.574402,101.871521 1000.177307,114.627335 
	C1002.803894,119.034103 1004.932617,123.737595 1007.577576,128.865433 
	C999.710510,128.146774 992.712585,127.618721 985.741882,126.844971 
	C974.993347,125.651878 964.274597,124.186661 953.522461,123.029861 
	C942.903870,121.887436 932.250793,121.062477 921.637817,119.875397 
	C920.351440,119.731514 918.658875,118.462311 918.106262,117.272575 
	C913.998718,108.429871 910.842468,99.070343 906.038635,90.641876 
	C896.559875,74.011238 882.922974,61.479546 864.239258,56.194145 
	C853.004639,53.016029 841.198792,51.749603 829.589661,50.029228 
	C813.894958,47.703411 797.985229,47.579723 782.460571,50.252415 
	C758.213501,54.426746 737.689331,66.157272 722.771545,85.999504 
	C714.086609,97.551376 714.011719,106.897369 721.569702,115.880768 
	C733.107849,129.594894 749.107056,135.551682 766.292297,136.750885 
	C786.318665,138.148331 806.475037,137.779984 826.576965,137.965881 
	C844.241089,138.129242 861.907959,137.999069 879.573608,138.001816 
	C880.906433,138.002029 882.249573,137.925980 883.570557,138.058273 
	C896.476868,139.350830 909.375671,140.720245 922.284729,141.984238 
	C930.142761,142.753647 938.035339,143.203033 945.876160,144.109436 
	C955.629822,145.236969 965.338501,146.748795 975.080750,147.982849 
	C986.464783,149.424896 997.894348,150.536682 1009.249207,152.172836 
	C1023.638184,154.246185 1038.031494,156.386795 1052.313232,159.080170 
	C1067.829712,162.006363 1083.344971,165.114136 1098.632690,169.032486 
	C1115.800903,173.432861 1131.749878,181.139954 1146.977783,190.088684 
	C1163.136353,199.584213 1178.807251,209.871490 1191.482056,223.997696 
	C1196.435425,229.518280 1201.386108,235.046158 1206.178467,240.705704 
	C1217.938477,254.593704 1228.427856,269.315582 1236.025146,285.977631 
	C1245.195923,306.090790 1252.261475,326.843719 1256.106201,348.662445 
	C1256.610229,351.522766 1258.013306,354.224701 1259.000000,357.000000 
	C1259.000000,357.000000 1259.000000,357.500000 1258.681030,357.861511 
	C1258.574707,359.148682 1258.787354,360.074341 1259.000000,361.000000 
	C1259.000000,379.020905 1259.000000,397.041779 1258.680908,415.642853 
	C1258.574585,417.148682 1258.787231,418.074341 1259.000000,419.000000 
	C1259.000000,419.444458 1259.000000,419.888885 1259.000000,420.666687 
z"/>
<path fill="#FFFFFF" opacity="1.000000" stroke="none" 
	d="
M1259.000000,356.531311 
	C1258.013306,354.224701 1256.610229,351.522766 1256.106201,348.662445 
	C1252.261475,326.843719 1245.195923,306.090790 1236.025146,285.977631 
	C1228.427856,269.315582 1217.938477,254.593704 1206.178467,240.705704 
	C1201.386108,235.046158 1196.435425,229.518280 1191.482056,223.997696 
	C1178.807251,209.871490 1163.136353,199.584213 1146.977783,190.088684 
	C1131.749878,181.139954 1115.800903,173.432861 1098.632690,169.032486 
	C1083.344971,165.114136 1067.829712,162.006363 1052.313232,159.080170 
	C1038.031494,156.386795 1023.638184,154.246185 1009.249207,152.172836 
	C997.894348,150.536682 986.464783,149.424896 975.080750,147.982849 
	C965.338501,146.748795 955.629822,145.236969 945.876160,144.109436 
	C938.035339,143.203033 930.142761,142.753647 922.284729,141.984238 
	C909.375671,140.720245 896.476868,139.350830 883.570557,138.058273 
	C882.249573,137.925980 880.906433,138.002029 879.573608,138.001816 
	C861.907959,137.999069 844.241089,138.129242 826.576965,137.965881 
	C806.475037,137.779984 786.318665,138.148331 766.292297,136.750885 
	C749.107056,135.551682 733.107849,129.594894 721.569702,115.880768 
	C714.011719,106.897369 714.086609,97.551376 722.771545,85.999504 
	C737.689331,66.157272 758.213501,54.426746 782.460571,50.252415 
	C797.985229,47.579723 813.894958,47.703411 829.589661,50.029228 
	C841.198792,51.749603 853.004639,53.016029 864.239258,56.194145 
	C882.922974,61.479546 896.559875,74.011238 906.038635,90.641876 
	C910.842468,99.070343 913.998718,108.429871 918.106262,117.272575 
	C918.658875,118.462311 920.351440,119.731514 921.637817,119.875397 
	C932.250793,121.062477 942.903870,121.887436 953.522461,123.029861 
	C964.274597,124.186661 974.993347,125.651878 985.741882,126.844971 
	C992.712585,127.618721 999.710510,128.146774 1007.577576,128.865433 
	C1004.932617,123.737595 1002.803894,119.034103 1000.177307,114.627335 
	C992.574402,101.871521 984.919983,89.141479 977.011169,76.574127 
	C965.836975,58.817898 949.986084,45.895584 932.329529,35.186325 
	C916.112427,25.350109 899.248779,16.579226 880.688538,12.006521 
	C866.627747,8.542374 852.361511,5.901388 838.157959,3.036104 
	C834.628113,2.324023 830.987427,2.161657 827.198853,1.373306 
	C970.919983,1.000000 1114.839966,1.000000 1259.000000,1.000000 
	C1259.000000,119.354118 1259.000000,237.708405 1259.000000,356.531311 
z"/>
<path fill="#A9ACAD" opacity="1.000000" stroke="none" 
	d="
M386.468658,682.000000 
	C375.793091,678.983948 366.257172,674.466003 358.655304,666.996094 
	C347.419037,655.954834 341.344574,642.631104 340.836029,626.451660 
	C340.222229,606.923401 346.955017,590.772278 360.944702,577.684814 
	C375.051849,564.487610 391.988678,556.725403 411.143280,554.033691 
	C417.500854,553.140320 423.948486,551.922607 430.298859,552.189148 
	C438.136353,552.518188 445.915863,554.237122 453.718933,555.365845 
	C454.947876,555.543640 456.168823,555.776611 457.448730,555.993469 
	C458.603455,532.083679 446.174072,511.708557 420.146667,510.953033 
	C405.715851,510.534119 391.710205,511.950653 378.875610,519.108948 
	C374.435852,521.585205 370.378448,524.747070 365.548798,527.997986 
	C360.626312,518.173462 355.648468,508.238373 350.583160,498.128723 
	C362.427277,489.317169 375.389709,484.205261 389.133606,481.108582 
	C396.007721,479.559753 403.131470,478.043579 410.103149,478.204895 
	C430.793427,478.683685 451.506561,480.048950 469.051422,493.066620 
	C480.313232,501.422394 486.983154,513.120789 489.756653,526.531372 
	C492.080719,537.768738 493.534821,549.346741 493.817352,560.812317 
	C494.416260,585.117737 493.885132,609.449036 494.050354,633.768066 
	C494.128326,645.242554 497.065155,655.605652 507.078094,662.820312 
	C508.250702,663.665222 508.824310,665.928101 508.914886,667.575378 
	C509.161346,672.059631 508.999817,676.566284 509.000000,681.532043 
	C503.311951,682.000000 497.623932,682.000000 491.262726,681.679749 
	C476.177277,679.183594 466.319061,671.395752 461.621460,657.560120 
	C451.875214,668.127625 440.472809,675.488281 426.704590,679.020203 
	C422.804871,680.020508 418.901611,681.007019 415.000000,682.000000 
	C405.645782,682.000000 396.291534,682.000000 386.468658,682.000000 
M446.231506,580.027466 
	C445.066406,580.006775 443.878601,580.127380 442.739594,579.944275 
	C425.267792,577.135925 409.065125,580.751465 394.973267,591.182556 
	C382.796906,600.195679 375.068756,612.000671 376.931824,628.328857 
	C378.692078,643.756226 385.355927,649.727783 397.806702,652.554810 
	C422.529297,658.168274 439.648987,649.848816 456.226349,631.006165 
	C457.556793,629.493896 457.891113,626.717712 457.924255,624.517273 
	C458.089752,613.532227 458.000000,602.543335 458.000000,591.555786 
	C458.000000,588.464600 458.000000,585.373413 458.000000,582.617126 
	C453.842255,581.666626 450.476990,580.897217 446.231506,580.027466 
z"/>
<path fill="#A9ACAD" opacity="1.000000" stroke="none" 
	d="
M694.468628,682.000000 
	C686.350159,678.339600 677.975037,675.684937 671.205627,670.803528 
	C658.213257,661.434937 651.017578,648.272827 648.804077,632.054077 
	C647.343506,621.352356 648.751343,611.328247 652.298828,601.491577 
	C657.132324,588.089600 666.556396,578.120667 677.959656,570.084351 
	C693.175720,559.361023 710.412292,554.706543 728.857849,552.751587 
	C740.986694,551.466187 752.467896,552.922058 764.629883,556.164368 
	C765.845581,545.482239 763.654663,535.847717 758.406067,527.113464 
	C751.901245,516.288757 741.386230,511.776093 729.241455,511.066833 
	C715.926270,510.289215 702.676025,511.143463 690.454041,517.116211 
	C684.603821,519.975098 679.272522,523.896057 672.976929,527.786804 
	C668.186157,518.269104 663.189270,508.341858 657.770691,497.576782 
	C663.847229,494.276703 669.444519,490.799561 675.393188,488.095459 
	C688.574646,482.103577 702.615845,478.373047 716.971619,478.256622 
	C739.417847,478.074615 761.802734,480.285614 779.917114,495.701080 
	C789.746643,504.066071 795.308472,515.558594 797.777832,528.146545 
	C799.484070,536.844360 800.717285,545.769836 800.858093,554.614319 
	C801.261230,579.937805 800.822510,605.274109 801.132996,630.600159 
	C801.204651,636.438660 802.738708,642.301636 803.979553,648.071716 
	C805.298523,654.205017 809.687622,658.354370 814.005798,662.561646 
	C815.434814,663.954102 816.675171,666.142212 816.867371,668.079163 
	C817.293152,672.369507 817.000000,676.731323 817.000000,681.531982 
	C811.645081,682.000000 806.290100,682.000000 800.253052,681.675415 
	C784.777649,679.670349 774.477295,672.007690 769.108948,657.641357 
	C767.562256,659.084412 766.423401,660.034790 765.413757,661.106812 
	C757.786499,669.204651 748.582520,674.753174 737.953918,677.884705 
	C732.688782,679.435913 727.321228,680.639221 722.000000,682.000000 
	C712.979126,682.000000 703.958191,682.000000 694.468628,682.000000 
M764.967163,582.618530 
	C753.853271,580.187805 742.880371,577.933655 731.237549,579.844666 
	C713.744934,582.715942 699.263184,589.961304 689.491455,605.137878 
	C680.799072,618.638123 682.312134,637.535278 693.168884,646.526001 
	C703.400818,654.999329 715.796814,655.175537 728.092651,653.327087 
	C739.858459,651.558411 749.684326,645.355286 758.125244,637.204712 
	C761.233398,634.203491 765.444763,630.329834 765.632141,626.673645 
	C766.372009,612.241272 765.714111,597.737244 764.967163,582.618530 
z"/>
<path fill="#A9ACAD" opacity="1.000000" stroke="none" 
	d="
M0.999994,521.333313 
	C1.641783,520.296570 2.716992,519.672485 2.862261,518.878235 
	C6.941919,496.572418 22.739637,486.436646 42.677444,481.098602 
	C64.182068,475.340973 85.110588,478.984711 105.634048,486.318542 
	C110.572685,488.083344 115.505280,489.865021 120.950348,491.822113 
	C117.484344,503.075348 114.127052,513.975647 111.028107,524.037109 
	C101.272125,519.502441 92.230171,514.279358 82.525787,511.042297 
	C69.841980,506.811432 57.148438,507.588867 45.808598,516.041748 
	C41.452015,519.289246 38.892117,526.209473 39.512070,531.205200 
	C41.421936,546.595337 52.473160,553.314819 64.929756,558.912048 
	C80.103470,565.730164 95.866875,571.424072 109.072128,582.017456 
	C120.695717,591.341980 127.557877,603.030518 129.155319,618.171936 
	C130.727890,633.077576 128.634277,646.820496 119.519249,658.892212 
	C108.782753,673.111328 93.496864,679.015686 76.224770,681.670410 
	C65.312439,682.000000 54.624878,682.000000 43.243668,681.670288 
	C36.780800,680.100220 30.844452,679.360107 25.281771,677.501526 
	C17.048674,674.750916 9.080796,671.206482 1.000004,668.000000 
	C1.000000,665.958313 1.000000,663.916687 1.370787,661.402222 
	C2.477879,659.549072 3.366196,658.227356 3.925138,656.778625 
	C6.933579,648.980896 9.860177,641.151550 12.933330,633.020081 
	C18.842896,636.313110 24.281775,639.362854 29.738297,642.380737 
	C42.717453,649.559265 56.056427,653.858521 71.387009,651.167542 
	C90.041649,647.893005 95.916031,628.193359 89.464027,615.988098 
	C84.623428,606.831177 76.696770,600.933716 67.708168,596.355042 
	C55.775536,590.276733 43.445961,584.905273 31.864492,578.228333 
	C17.558102,569.980408 6.658935,558.511047 2.918047,541.618530 
	C2.703896,540.651489 1.658519,539.868591 0.999998,539.000000 
	C1.000000,538.555542 1.000000,538.111084 1.341356,537.084961 
	C1.455141,532.002197 1.227571,527.501099 1.000000,523.000000 
	C1.000000,522.555542 1.000000,522.111084 0.999994,521.333313 
z"/>
<path fill="#A9ACAD" opacity="1.000000" stroke="none" 
	d="
M229.468658,682.000000 
	C222.746933,680.215332 216.315094,678.894897 210.271133,676.567322 
	C180.909882,665.259766 162.445496,643.860474 155.474548,613.487244 
	C148.693115,583.939636 149.825806,554.586731 164.505020,527.175476 
	C177.963089,502.044525 199.337936,486.934814 227.091568,481.140076 
	C235.760483,479.330078 244.749069,478.104156 253.574249,478.199066 
	C269.022949,478.365143 283.981018,481.845306 298.019531,488.551727 
	C303.895569,491.358795 309.603638,494.517334 315.914612,497.789032 
	C309.318420,507.029480 303.499329,515.181396 297.802277,523.162292 
	C291.751099,520.208252 285.912079,516.890869 279.732391,514.428711 
	C261.327667,507.095764 242.589981,506.149353 224.370300,514.501343 
	C212.347305,520.012695 203.854477,529.621948 197.914261,541.605652 
	C189.553421,558.472717 188.853149,576.524170 190.249405,594.536194 
	C191.508377,610.777222 196.911835,625.884338 209.721985,637.215637 
	C218.095474,644.622559 227.846863,649.047241 238.847076,651.031555 
	C262.084656,655.223267 282.194946,648.053406 300.910950,633.839050 
	C305.597717,643.552490 310.199860,652.864624 314.467987,662.327454 
	C314.845398,663.164307 313.383698,665.573730 312.200745,666.258057 
	C297.722198,674.634644 282.127258,679.675537 265.230835,681.667480 
	C253.312439,682.000000 241.624878,682.000000 229.468658,682.000000 
z"/>
<path fill="#A9ACAD" opacity="1.000000" stroke="none" 
	d="
M601.467957,682.000000 
	C594.604065,680.136780 588.073486,678.638550 581.838440,676.339111 
	C565.662476,670.373413 556.004761,658.431213 552.197266,641.863770 
	C550.841370,635.963867 550.102478,629.786682 550.090637,623.734070 
	C549.949951,551.773499 550.000000,479.812469 550.000000,407.851593 
	C550.000000,405.861237 550.000000,403.870880 550.000000,401.440613 
	C561.941833,401.440613 573.636414,401.440613 586.000000,401.440613 
	C586.000000,403.402405 586.000000,405.339600 586.000000,407.276825 
	C586.000000,476.405914 586.184570,545.535828 585.883423,614.663635 
	C585.797241,634.436462 596.443604,649.881165 619.000000,650.322388 
	C619.000000,660.546021 619.000000,670.804382 619.000000,681.531372 
	C613.311951,682.000000 607.623962,682.000000 601.467957,682.000000 
z"/>
<path fill="#FFFFFF" opacity="1.000000" stroke="none" 
	d="
M0.999998,539.468628 
	C1.658519,539.868591 2.703896,540.651489 2.918047,541.618530 
	C6.658935,558.511047 17.558102,569.980408 31.864492,578.228333 
	C43.445961,584.905273 55.775536,590.276733 67.708168,596.355042 
	C76.696770,600.933716 84.623428,606.831177 89.464027,615.988098 
	C95.916031,628.193359 90.041649,647.893005 71.387009,651.167542 
	C56.056427,653.858521 42.717453,649.559265 29.738297,642.380737 
	C24.281775,639.362854 18.842896,636.313110 12.933330,633.020081 
	C9.860177,641.151550 6.933579,648.980896 3.925138,656.778625 
	C3.366196,658.227356 2.477879,659.549072 1.370787,660.964722 
	C1.000000,620.645752 1.000000,580.291565 0.999998,539.468628 
z"/>
<path fill="#FFFFFF" opacity="1.000000" stroke="none" 
	d="
M722.468628,682.000000 
	C727.321228,680.639221 732.688782,679.435913 737.953918,677.884705 
	C748.582520,674.753174 757.786499,669.204651 765.413757,661.106812 
	C766.423401,660.034790 767.562256,659.084412 769.108948,657.641357 
	C774.477295,672.007690 784.777649,679.670349 799.785400,681.675415 
	C774.312439,682.000000 748.624878,682.000000 722.468628,682.000000 
z"/>
<path fill="#FFFFFF" opacity="1.000000" stroke="none" 
	d="
M415.468658,682.000000 
	C418.901611,681.007019 422.804871,680.020508 426.704590,679.020203 
	C440.472809,675.488281 451.875214,668.127625 461.621460,657.560120 
	C466.319061,671.395752 476.177277,679.183594 490.794800,681.679749 
	C465.979095,682.000000 440.958221,682.000000 415.468658,682.000000 
z"/>
<path fill="#FFFFFF" opacity="1.000000" stroke="none" 
	d="
M1.000004,668.474121 
	C9.080796,671.206482 17.048674,674.750916 25.281771,677.501526 
	C30.844452,679.360107 36.780800,680.100220 42.775009,681.670288 
	C29.113071,682.000000 15.226142,682.000000 1.000000,682.000000 
	C1.000000,677.655273 1.000000,673.301758 1.000004,668.474121 
z"/>
<path fill="#FFFFFF" opacity="1.000000" stroke="none" 
	d="
M1.000000,523.464661 
	C1.227571,527.501099 1.455141,532.002197 1.341356,536.751648 
	C1.000000,532.643127 1.000000,528.286194 1.000000,523.464661 
z"/>
<path fill="#FFFFFF" opacity="1.000000" stroke="none" 
	d="
M1259.000000,418.625000 
	C1258.787231,418.074341 1258.574585,417.148682 1258.680908,416.111511 
	C1259.000000,416.750000 1259.000000,417.500000 1259.000000,418.625000 
z"/>
<path fill="#FFFFFF" opacity="1.000000" stroke="none" 
	d="
M1259.000000,360.625000 
	C1258.787354,360.074341 1258.574707,359.148682 1258.681030,358.111511 
	C1259.000000,358.750000 1259.000000,359.500000 1259.000000,360.625000 
z"/>
<path fill="#A9ACAD" opacity="1.000000" stroke="none" 
	d="
M858.000000,556.000000 
	C858.000000,531.218445 858.000000,506.936890 858.000000,482.329224 
	C870.050964,482.329224 881.627136,482.329224 893.837158,482.329224 
	C893.837158,491.026245 893.837158,499.735107 893.837158,508.444000 
	C894.161743,508.795776 894.486389,509.147583 894.810974,509.499359 
	C914.714722,477.556946 943.799927,474.274261 977.381958,482.014618 
	C972.405762,493.751770 967.618286,505.043762 962.842957,516.307251 
	C957.472473,514.130432 952.382996,511.401398 946.951172,509.992584 
	C931.578735,506.005615 918.575012,512.830994 909.402344,523.345276 
	C901.466919,532.441345 896.161194,542.953430 894.472168,555.069153 
	C894.221802,556.865112 894.020752,558.686279 894.019470,560.495972 
	C893.993591,597.808899 894.000000,635.121887 894.000000,672.434814 
	C894.000000,674.401611 894.000000,676.368469 894.000000,678.660645 
	C881.970032,678.660645 870.393555,678.660645 858.000000,678.660645 
	C858.000000,637.954285 858.000000,597.227173 858.000000,556.000000 
z"/>
<path fill="#FFFFFF" opacity="1.000000" stroke="none" 
	d="
M446.671631,580.077637 
	C450.476990,580.897217 453.842255,581.666626 458.000000,582.617126 
	C458.000000,585.373413 458.000000,588.464600 458.000000,591.555786 
	C458.000000,602.543335 458.089752,613.532227 457.924255,624.517273 
	C457.891113,626.717712 457.556793,629.493896 456.226349,631.006165 
	C439.648987,649.848816 422.529297,658.168274 397.806702,652.554810 
	C385.355927,649.727783 378.692078,643.756226 376.931824,628.328857 
	C375.068756,612.000671 382.796906,600.195679 394.973267,591.182556 
	C409.065125,580.751465 425.267792,577.135925 442.739594,579.944275 
	C443.878601,580.127380 445.066406,580.006775 446.671631,580.077637 
z"/>
<path fill="#FFFFFF" opacity="1.000000" stroke="none" 
	d="
M765.270935,582.939209 
	C765.714111,597.737244 766.372009,612.241272 765.632141,626.673645 
	C765.444763,630.329834 761.233398,634.203491 758.125244,637.204712 
	C749.684326,645.355286 739.858459,651.558411 728.092651,653.327087 
	C715.796814,655.175537 703.400818,654.999329 693.168884,646.526001 
	C682.312134,637.535278 680.799072,618.638123 689.491455,605.137878 
	C699.263184,589.961304 713.744934,582.715942 731.237549,579.844666 
	C742.880371,577.933655 753.853271,580.187805 765.270935,582.939209 
z"/>
</svg>